<svg width="938" height="836" viewBox="0 0 938 836" fill="none" xmlns="http://www.w3.org/2000/svg">
<g opacity="0.6" filter="url(#filter0_f_4_50)">
<path d="M689.661 271.062C673.979 262.089 653.817 262.089 635.896 271.062L510.444 345.092L425.316 392.202L302.104 466.231C286.423 475.205 266.261 475.205 248.339 466.231L152.01 407.905C136.329 398.932 125.128 380.985 125.128 360.795V248.629C125.128 230.683 134.089 212.736 152.01 201.519L248.339 145.436C264.021 136.463 284.183 136.463 302.104 145.436L398.433 203.763C414.115 212.736 425.316 230.683 425.316 250.872V324.902L510.444 275.549V199.276C510.444 181.329 501.483 163.383 483.561 152.166L304.345 46.73C288.663 37.7567 268.501 37.7567 250.58 46.73L66.8825 154.41C48.9608 163.383 40 181.329 40 199.276V410.148C40 428.095 48.9608 446.042 66.8825 457.258L248.339 562.694C264.021 571.668 284.183 571.668 302.104 562.694L425.316 490.908L510.444 441.555L633.655 369.769C649.337 360.795 669.499 360.795 687.42 369.769L783.749 425.852C799.431 434.825 810.632 452.772 810.632 472.961V585.128C810.632 603.074 801.671 621.021 783.749 632.237L689.661 688.321C673.979 697.294 653.817 697.294 635.896 688.321L539.567 632.237C523.885 623.264 512.684 605.318 512.684 585.128V513.341L427.556 562.694V636.724C427.556 654.671 436.517 672.617 454.439 683.834L635.896 789.27C651.577 798.243 671.739 798.243 689.661 789.27L871.118 683.834C886.799 674.861 898 656.914 898 636.724V423.608C898 405.662 889.039 387.715 871.118 376.499L689.661 271.062Z" fill="#8247E5"/>
</g>
<defs>
<filter id="filter0_f_4_50" x="0" y="0" width="938" height="836" filterUnits="userSpaceOnUse" color-interpolation-filters="sRGB">
<feFlood flood-opacity="0" result="BackgroundImageFix"/>
<feBlend mode="normal" in="SourceGraphic" in2="BackgroundImageFix" result="shape"/>
<feGaussianBlur stdDeviation="20" result="effect1_foregroundBlur_4_50"/>
</filter>
</defs>
</svg>
