<svg width="52" height="40" viewBox="0 0 52 40" fill="none" xmlns="http://www.w3.org/2000/svg">
<path d="M39.7605 13.1152C39.2779 5.80235 33.1747 0 25.7418 0C18.307 0 12.2027 5.80481 11.7228 13.1203C5.07563 13.9565 0 19.6194 0 26.4144C0 33.8119 6.01832 39.8304 13.416 39.8304H33.8185C34.3988 39.8304 34.8695 39.3597 34.8695 38.7794C34.8695 38.1992 34.3988 37.7285 33.8185 37.7285H13.416C7.17732 37.7283 2.10186 32.6529 2.10186 26.4144C2.10186 20.411 6.80178 15.4553 12.8015 15.1325C13.3592 15.1025 13.7961 14.6415 13.7961 14.0831C13.7961 14.0623 13.7955 14.0418 13.7943 14.021C13.8101 7.44636 19.1635 2.10186 25.7418 2.10186C32.3211 2.10186 37.6754 7.44723 37.6893 14.0234C37.6884 14.0437 37.6877 14.0651 37.6877 14.081C37.6877 14.6408 38.1265 15.1024 38.6854 15.1306C44.7054 15.4355 49.421 20.3919 49.421 26.4142C49.421 29.8343 47.8975 33.0352 45.2411 35.1961C44.7907 35.5624 44.7228 36.2243 45.089 36.6744C45.4553 37.1248 46.1172 37.1927 46.5673 36.8265C49.7166 34.2647 51.5228 30.4696 51.5228 26.414C51.5228 19.5982 46.43 13.9332 39.7605 13.1152Z" fill="white" fill-opacity="0.3"/>
<path d="M24.6909 18.8642V32.2654C24.6909 32.8457 25.1616 33.3164 25.7418 33.3164C26.3221 33.3164 26.7928 32.8457 26.7928 32.2654V18.8642C26.7928 18.2839 26.3221 17.8132 25.7418 17.8132C25.1616 17.8132 24.6909 18.2839 24.6909 18.8642Z" fill="#5956FF"/>
<path d="M31.7526 20.813C32.0216 20.813 32.2905 20.7103 32.4957 20.5052C32.9061 20.0948 32.9061 19.4294 32.4957 19.019L26.4849 13.0082C26.0746 12.5978 25.409 12.5978 24.9988 13.0082L18.988 19.019C18.5776 19.4294 18.5776 20.0948 18.988 20.5052C19.3984 20.9156 20.0639 20.9156 20.4742 20.5052L25.7418 15.2376L31.0094 20.5052C31.2146 20.7103 31.4837 20.813 31.7526 20.813Z" fill="#5956FF"/>
</svg>
